<svg width="116" height="72" viewBox="0 0 116 72" fill="none" xmlns="http://www.w3.org/2000/svg">
<path d="M0.6 23L10.008 7.544L13.176 12.792L6.968 23H0.6ZM14.2 0.631998L27.768 23.032H21.4L20.088 20.856L11.032 5.848L14.2 0.631998ZM0.6 52.152L5.72 57.304H13.528V62.744H6.04V71H0.6V52.152ZM0.568 49.016H19.544V54.456H6.008V55.096L0.568 49.656V49.016ZM21.1938 71L27.8177 60.088L30.0578 63.8L25.6738 71H21.1938ZM30.7618 55.224L40.3298 71.032H35.8498L34.9218 69.496L28.5218 58.904L30.7618 55.224ZM43.5688 55.512H47.4088V61.272L43.5688 57.432V55.512ZM43.5688 71V59.16L47.4088 63V71H43.5688ZM60.488 65.176L66.472 71.064H60.52L60.424 70.968L54.472 65.048L50.632 61.208V55.544H61C61.288 55.544 61.576 55.576 61.864 55.64C62.728 55.8 63.528 56.216 64.168 56.856C64.744 57.432 65.16 58.168 65.352 58.968C65.448 59.32 65.48 59.672 65.48 60.024C65.48 60.184 65.48 60.344 65.448 60.504C65.384 61.752 64.872 62.904 64.008 63.768C63.144 64.632 61.992 65.144 60.744 65.176H60.68C60.616 65.176 60.552 65.176 60.488 65.176ZM60.264 61.4L60.296 61.56C60.392 61.56 60.488 61.56 60.584 61.528C60.648 61.528 60.712 61.496 60.776 61.464C60.968 61.4 61.128 61.304 61.256 61.176C61.288 61.144 61.32 61.112 61.352 61.08C61.352 61.048 61.352 61.016 61.384 60.984C61.384 60.952 61.384 60.92 61.384 60.888C61.416 60.824 61.448 60.76 61.48 60.696C61.544 60.536 61.576 60.344 61.576 60.152C61.576 60.12 61.576 60.088 61.576 60.056C61.576 60.024 61.576 59.992 61.576 59.96C61.576 59.896 61.576 59.832 61.576 59.768C61.544 59.704 61.512 59.64 61.48 59.576H54.76L56.584 61.4H60.264ZM50.696 71.224V63.128L54.536 66.968V71.224H50.696Z" fill="#F67B0A"/>
<path d="M44.991 14.744L53.407 23.032H44.959L44.831 22.904L36.383 14.488V14.52L30.943 9.08V1.048H45.631C46.047 1.048 46.463 1.08 46.879 1.176C48.127 1.432 49.247 2.04 50.143 2.936C50.975 3.768 51.551 4.824 51.839 5.976C51.967 6.456 52.031 6.968 52.031 7.48C52.031 7.704 52.031 7.928 51.999 8.152C51.935 9.912 51.231 11.544 50.015 12.76C48.767 14.008 47.103 14.712 45.343 14.744H45.279C45.183 14.744 45.087 14.744 44.991 14.744ZM44.607 9.336L44.639 9.272C44.767 9.272 44.895 9.272 45.023 9.24C45.119 9.208 45.215 9.176 45.311 9.144C45.567 9.048 45.791 8.888 45.983 8.696C46.015 8.664 46.047 8.632 46.079 8.6C46.111 8.568 46.143 8.536 46.175 8.504C46.207 8.472 46.207 8.44 46.207 8.408C46.239 8.344 46.271 8.28 46.303 8.216C46.399 7.96 46.463 7.704 46.463 7.416C46.463 7.384 46.463 7.352 46.463 7.32C46.463 7.288 46.463 7.256 46.463 7.224C46.463 7.16 46.463 7.096 46.431 7.032C46.399 6.936 46.367 6.84 46.335 6.744H36.799L39.391 9.336H44.607ZM31.007 22.968V11.48L36.447 16.92V22.968H31.007ZM64.856 23V11.608L70.296 17.048V23H64.856ZM56.6 1.016H78.584V6.456H70.296V14.552L64.856 9.112V6.456H56.6V1.016ZM8.568 25.016H22.584V30.456H14.008L8.568 25.016ZM22.296 38.2L22.104 38.552C22.296 39.192 22.392 39.864 22.392 40.536C22.392 41.208 22.296 41.88 22.104 42.52C21.688 43.896 20.824 45.144 19.672 46.008C18.488 46.904 17.048 47.384 15.544 47.384H0.408V41.944H15.544C16.312 41.944 16.952 41.304 16.952 40.536C16.952 39.768 16.312 39.128 15.544 39.128H7.256C6.584 39.128 5.912 39.032 5.272 38.84C4.184 38.52 3.192 37.912 2.392 37.112C1.592 36.312 0.984 35.32 0.664 34.232C0.472 33.592 0.376 32.92 0.376 32.248C0.376 31.576 0.472 30.904 0.664 30.264C0.984 29.176 1.592 28.184 2.392 27.384C3.192 26.584 4.184 25.976 5.272 25.656C5.432 25.592 5.592 25.56 5.752 25.528L5.976 25.464L11.32 30.808H7.256C6.488 30.808 5.848 31.448 5.848 32.216C5.848 32.984 6.488 33.624 7.256 33.624H15.544C15.576 33.624 15.608 33.624 15.64 33.624H15.672C15.704 33.624 15.736 33.624 15.768 33.624H15.832C15.896 33.624 15.96 33.624 16.024 33.624C16.056 33.624 16.088 33.624 16.12 33.624H16.152C16.184 33.624 16.216 33.624 16.248 33.624C16.312 33.624 16.376 33.624 16.44 33.624C16.472 33.624 16.504 33.624 16.536 33.624H16.568C16.632 33.624 16.696 33.624 16.76 33.624H16.856C16.92 33.624 16.984 33.624 17.048 33.624H17.08C17.144 33.624 17.208 33.656 17.272 33.688H17.304L17.368 33.72C17.4 33.72 17.432 33.72 17.464 33.72C17.528 33.752 17.592 33.784 17.656 33.816H17.688C17.816 33.848 17.944 33.88 18.072 33.912H18.104C18.168 33.944 18.232 33.976 18.296 34.008H18.328C18.424 34.04 18.52 34.072 18.616 34.104C18.648 34.104 18.68 34.104 18.712 34.104C18.776 34.136 18.84 34.168 18.904 34.2C19 34.264 19.096 34.328 19.192 34.392L19.352 34.488C19.416 34.52 19.48 34.552 19.544 34.584C19.608 34.616 19.672 34.648 19.736 34.68L19.768 34.712C19.896 34.808 20.024 34.904 20.152 35C20.184 35.032 20.248 35.064 20.312 35.128C20.344 35.16 20.376 35.192 20.408 35.224L20.472 35.288C20.504 35.288 20.536 35.288 20.568 35.32C20.6 35.352 20.632 35.384 20.664 35.416C20.76 35.512 20.856 35.608 20.952 35.704C20.984 35.736 21.016 35.768 21.048 35.8L21.112 35.864C21.112 35.896 21.112 35.928 21.112 35.96C21.144 35.992 21.176 36.024 21.208 36.056L21.24 36.088C21.272 36.152 21.304 36.216 21.336 36.28C21.368 36.312 21.4 36.344 21.432 36.376C21.464 36.408 21.496 36.44 21.528 36.472L21.56 36.536C21.656 36.728 21.752 36.92 21.848 37.112L21.88 37.144C21.944 37.272 22.008 37.4 22.072 37.528L22.104 37.592L22.2 37.88C22.2 37.912 22.2 37.944 22.2 37.976L22.296 38.2ZM29.0025 43.16H38.0905V47H25.1625V38.232L29.0025 42.072V43.16ZM38.0905 41.176L29.8025 41.144L25.1305 36.472V31.48H38.0585V35.32H29.3865L31.4025 37.336H38.0905V41.176ZM41.2875 47L47.9115 36.088L50.1515 39.8L45.7675 47H41.2875ZM50.8555 31.224L60.4235 47.032H55.9435L55.0155 45.496L48.6155 34.904L50.8555 31.224ZM73.5505 41.176L79.5345 47.064H73.5825L73.4865 46.968L67.5345 41.048L63.6945 37.208V31.544H74.0625C74.3505 31.544 74.6385 31.576 74.9265 31.64C75.7905 31.8 76.5905 32.216 77.2305 32.856C77.8065 33.432 78.2225 34.168 78.4145 34.968C78.5105 35.32 78.5425 35.672 78.5425 36.024C78.5425 36.184 78.5425 36.344 78.5105 36.504C78.4465 37.752 77.9345 38.904 77.0705 39.768C76.2065 40.632 75.0545 41.144 73.8065 41.176H73.7425C73.6785 41.176 73.6145 41.176 73.5505 41.176ZM73.3265 37.4L73.3585 37.56C73.4545 37.56 73.5505 37.56 73.6465 37.528C73.7105 37.528 73.7745 37.496 73.8385 37.464C74.0305 37.4 74.1905 37.304 74.3185 37.176C74.3505 37.144 74.3825 37.112 74.4145 37.08C74.4145 37.048 74.4145 37.016 74.4465 36.984C74.4465 36.952 74.4465 36.92 74.4465 36.888C74.4785 36.824 74.5105 36.76 74.5425 36.696C74.6065 36.536 74.6385 36.344 74.6385 36.152C74.6385 36.12 74.6385 36.088 74.6385 36.056C74.6385 36.024 74.6385 35.992 74.6385 35.96C74.6385 35.896 74.6385 35.832 74.6385 35.768C74.6065 35.704 74.5745 35.64 74.5425 35.576H67.8225L69.6465 37.4H73.3265ZM63.7585 47.224V39.128L67.5985 42.968V47.224H63.7585ZM87.0145 37.24L86.7905 37.656L83.8785 34.744L84.0385 34.52C85.5425 32.376 88.0065 31.096 90.6305 31.096C92.4545 31.096 94.2465 31.736 95.6545 32.888C97.0625 34.008 98.0545 35.576 98.4385 37.304L98.5345 37.688H94.4705L94.4065 37.496C94.2145 37.016 93.9265 36.568 93.5425 36.184C92.7745 35.416 91.7505 35 90.6625 35C89.5745 35 88.5505 35.416 87.7825 36.184C87.4625 36.504 87.2065 36.856 87.0145 37.24ZM94.3105 40.632L94.4705 40.504H98.5345L98.4385 40.888C98.1825 42.04 97.6705 43.128 96.9665 44.056C96.2625 44.952 95.3345 45.72 94.3105 46.264C94.1185 46.36 93.9265 46.456 93.7345 46.52C92.7425 46.936 91.6865 47.16 90.5985 47.16C88.4545 47.16 86.4385 46.328 84.9345 44.824C83.4305 43.32 82.5985 41.304 82.5985 39.16C82.5985 38.264 82.7585 37.368 83.0465 36.504L83.2065 36.024L86.5345 39.352V39.48C86.5985 40.44 87.0145 41.336 87.6865 42.008C88.3585 42.68 89.2545 43.096 90.2145 43.16C90.4065 43.16 90.5985 43.16 90.7905 43.16C91.2065 43.128 91.6225 43.032 92.0065 42.872C92.1345 42.84 92.2625 42.776 92.3905 42.712C92.7745 42.52 93.1265 42.264 93.4465 41.944C93.8305 41.56 94.1185 41.112 94.3105 40.632ZM101.694 47V37.752L105.534 41.592V47H101.694ZM111.358 31.48L115.198 31.512V47H111.358V41.176H106.846L101.694 36.024V31.48H105.534V34.424L108.446 37.336H111.358V31.48Z" fill="white"/>
</svg>
